# xmcd CD database file
#
# Track frame offsets:
#	150
#	61242
#	107350
#	147910
#	185997
#	194083
#
# Disc length: 3120 seconds
#
# Revision: 0
# Processed by: cddbd v1.5.2PL0 Copyright (c) Steve Scherf et al.
# Submitted via: CDex 1.51
#
DISCID=590c2e06
DTITLE=AALY Trio and Ken Vandermark - Hidden in the Stomach
DYEAR=1900
DGENRE=Jazz
TTITLE0=Structure a la Malle
TTITLE1=Why I Don't Go Back
TTITLE2=Song For Che
TTITLE3=Unknown Title
TTITLE4=Albumlatt Again
TTITLE5=Ghosts-Spirits
EXTD=
EXTT0=
EXTT1=
EXTT2=
EXTT3=
EXTT4=
EXTT5=
PLAYORDER=
